<svg viewBox="0 0 24 24" width="20" height="20" style="pointer-events: auto;"><path fill="none" stroke="currentColor" stroke-linecap="round" stroke-linejoin="round" stroke-width="2" d="M7 7c3.889-1.333 6.111-1.333 10 0M7 17c3.5 1.333 6.5 1.333 10 0"></path><path fill="none" stroke="currentColor" stroke-linecap="round" stroke-linejoin="round" stroke-width="2" d="M8.857 17.625C8.857 18.75 6.737 21 6.192 21c-1.633 0-3.083-1.875-3.809-3.375-.726-1.875-.544-6.562 1.632-12.937C5.601 3.546 7.195 3.18 8.857 3L10 6m5.143 11.625c0 1.125 2.12 3.375 2.665 3.375 1.633 0 3.083-1.875 3.81-3.375.725-1.875.543-6.562-1.633-12.937C18.4 3.546 16.805 3.18 15.143 3L14 6m-6.49 6H7.5m9 0h-.01"></path></svg>